<svg 
 xmlns="http://www.w3.org/2000/svg"
 xmlns:xlink="http://www.w3.org/1999/xlink"
 width="25px" height="20px">
<path fill-rule="evenodd"  fill="rgb(33, 38, 41)"
 d="M24.500,6.000 L23.890,6.000 L22.357,19.998 L17.000,19.998 L16.000,19.998 L9.000,19.998 L8.000,19.998 L2.643,19.998 L1.110,6.000 L0.500,6.000 C0.224,6.000 0.000,5.776 0.000,5.500 C0.000,5.223 0.224,5.000 0.500,5.000 L1.000,5.000 L1.000,4.999 L6.530,4.999 L4.315,0.999 L1.000,0.999 L1.000,-0.001 L4.905,-0.001 L4.913,-0.004 L4.915,-0.001 L5.000,-0.001 L5.000,0.152 L7.684,4.999 L8.000,4.999 L9.000,4.999 L16.000,4.999 L17.000,4.999 L17.316,4.999 L20.000,0.152 L20.000,-0.001 L20.085,-0.001 L20.087,-0.004 L20.095,-0.001 L24.000,-0.001 L24.000,0.999 L20.685,0.999 L18.470,4.999 L24.000,4.999 L24.000,5.000 L24.500,5.000 C24.776,5.000 25.000,5.223 25.000,5.500 C25.000,5.776 24.776,6.000 24.500,6.000 ZM17.000,18.999 L21.250,18.999 L21.654,15.999 L17.000,15.999 L17.000,18.999 ZM17.000,14.999 L21.788,14.999 L22.327,10.999 L17.000,10.999 L17.000,14.999 ZM22.461,9.999 L23.000,6.000 L17.916,6.000 L17.913,6.004 L17.904,6.000 L17.000,6.000 L17.000,9.999 L22.461,9.999 ZM9.000,18.999 L16.000,18.999 L16.000,15.999 L9.000,15.999 L9.000,18.999 ZM9.000,14.999 L16.000,14.999 L16.000,10.999 L9.000,10.999 L9.000,14.999 ZM16.000,9.999 L16.000,6.000 L9.000,6.000 L9.000,9.999 L16.000,9.999 ZM3.750,18.999 L8.000,18.999 L8.000,15.999 L3.346,15.999 L3.750,18.999 ZM3.211,14.999 L8.000,14.999 L8.000,10.999 L2.673,10.999 L3.211,14.999 ZM2.538,9.999 L8.000,9.999 L8.000,6.000 L7.096,6.000 L7.087,6.004 L7.084,6.000 L2.000,6.000 L2.538,9.999 Z"/>
</svg>