<svg 
 xmlns="http://www.w3.org/2000/svg"
 xmlns:xlink="http://www.w3.org/1999/xlink"
 width="996px" height="85px">

<path fill-rule="evenodd"  fill="rgb(31, 134, 197)"
 d="M81.000,0.000 L91.000,0.000 L91.000,55.000 L81.000,55.000 L81.000,0.000 Z"/>
<path fill-rule="evenodd"  fill="rgb(255, 0, 0)"
 d="M61.000,0.000 L71.000,0.000 L71.000,55.000 L61.000,55.000 L61.000,0.000 Z"/>
<path fill-rule="evenodd"  fill="rgb(255, 0, 0)"
 d="M101.000,0.000 L111.000,0.000 L111.000,55.000 L101.000,55.000 L101.000,0.000 Z"/>
<path fill-rule="evenodd"  fill="rgb(31, 134, 197)"
 d="M121.000,0.000 L131.000,0.000 L131.000,55.000 L121.000,55.000 L121.000,0.000 Z"/>
<path fill-rule="evenodd"  fill="rgb(255, 0, 0)"
 d="M141.000,0.000 L151.000,0.000 L151.000,55.000 L141.000,55.000 L141.000,0.000 Z"/>
<path fill-rule="evenodd"  fill="rgb(31, 134, 197)"
 d="M161.000,0.000 L171.000,0.000 L171.000,55.000 L161.000,55.000 L161.000,0.000 Z"/>
<path fill-rule="evenodd"  fill="rgb(255, 0, 0)"
 d="M181.000,0.000 L191.000,0.000 L191.000,55.000 L181.000,55.000 L181.000,0.000 Z"/>
<path fill-rule="evenodd"  fill="rgb(31, 134, 197)"
 d="M201.000,0.000 L211.000,0.000 L211.000,55.000 L201.000,55.000 L201.000,0.000 Z"/>
<path fill-rule="evenodd"  fill="rgb(255, 0, 0)"
 d="M221.000,0.000 L231.000,0.000 L231.000,55.000 L221.000,55.000 L221.000,0.000 Z"/>
<path fill-rule="evenodd"  fill="rgb(31, 134, 197)"
 d="M241.000,0.000 L251.000,0.000 L251.000,55.000 L241.000,55.000 L241.000,0.000 Z"/>
<path fill-rule="evenodd"  fill="rgb(255, 0, 0)"
 d="M261.000,0.000 L271.000,0.000 L271.000,55.000 L261.000,55.000 L261.000,0.000 Z"/>
<path fill-rule="evenodd"  fill="rgb(31, 134, 197)"
 d="M281.000,0.000 L291.000,0.000 L291.000,55.000 L281.000,55.000 L281.000,0.000 Z"/>
<path fill-rule="evenodd"  fill="rgb(255, 0, 0)"
 d="M301.000,0.000 L311.000,0.000 L311.000,55.000 L301.000,55.000 L301.000,0.000 Z"/>
<path fill-rule="evenodd"  fill="rgb(31, 134, 197)"
 d="M321.000,0.000 L331.000,0.000 L331.000,55.000 L321.000,55.000 L321.000,0.000 Z"/>
<path fill-rule="evenodd"  fill="rgb(255, 0, 0)"
 d="M341.000,0.000 L351.000,0.000 L351.000,55.000 L341.000,55.000 L341.000,0.000 Z"/>
<path fill-rule="evenodd"  fill="rgb(31, 134, 197)"
 d="M361.000,0.000 L371.000,0.000 L371.000,55.000 L361.000,55.000 L361.000,0.000 Z"/>
<path fill-rule="evenodd"  fill="rgb(255, 0, 0)"
 d="M381.000,0.000 L391.000,0.000 L391.000,55.000 L381.000,55.000 L381.000,0.000 Z"/>
<path fill-rule="evenodd"  fill="rgb(31, 134, 197)"
 d="M401.000,0.000 L411.000,0.000 L411.000,55.000 L401.000,55.000 L401.000,0.000 Z"/>
<path fill-rule="evenodd"  fill="rgb(255, 0, 0)"
 d="M421.000,0.000 L431.000,0.000 L431.000,55.000 L421.000,55.000 L421.000,0.000 Z"/>
<path fill-rule="evenodd"  fill="rgb(31, 134, 197)"
 d="M441.000,0.000 L451.000,0.000 L451.000,55.000 L441.000,55.000 L441.000,0.000 Z"/>
<path fill-rule="evenodd"  fill="rgb(255, 0, 0)"
 d="M461.000,0.000 L471.000,0.000 L471.000,55.000 L461.000,55.000 L461.000,0.000 Z"/>
<path fill-rule="evenodd"  fill="rgb(31, 134, 197)"
 d="M481.000,0.000 L491.000,0.000 L491.000,55.000 L481.000,55.000 L481.000,0.000 Z"/>
<path fill-rule="evenodd"  fill="rgb(255, 0, 0)"
 d="M501.000,0.000 L511.000,0.000 L511.000,55.000 L501.000,55.000 L501.000,0.000 Z"/>
<path fill-rule="evenodd"  fill="rgb(31, 134, 197)"
 d="M521.000,0.000 L531.000,0.000 L531.000,55.000 L521.000,55.000 L521.000,0.000 Z"/>
<path fill-rule="evenodd"  fill="rgb(255, 0, 0)"
 d="M541.000,0.000 L551.000,0.000 L551.000,55.000 L541.000,55.000 L541.000,0.000 Z"/>
<path fill-rule="evenodd"  fill="rgb(31, 134, 197)"
 d="M561.000,0.000 L571.000,0.000 L571.000,55.000 L561.000,55.000 L561.000,0.000 Z"/>
<path fill-rule="evenodd"  fill="rgb(255, 0, 0)"
 d="M581.000,0.000 L591.000,0.000 L591.000,55.000 L581.000,55.000 L581.000,0.000 Z"/>
<path fill-rule="evenodd"  fill="rgb(31, 134, 197)"
 d="M601.000,0.000 L611.000,0.000 L611.000,55.000 L601.000,55.000 L601.000,0.000 Z"/>
<path fill-rule="evenodd"  fill="rgb(255, 0, 0)"
 d="M621.000,0.000 L631.000,0.000 L631.000,55.000 L621.000,55.000 L621.000,0.000 Z"/>
<path fill-rule="evenodd"  fill="rgb(31, 134, 197)"
 d="M641.000,0.000 L651.000,0.000 L651.000,55.000 L641.000,55.000 L641.000,0.000 Z"/>
<path fill-rule="evenodd"  fill="rgb(255, 0, 0)"
 d="M661.000,0.000 L671.000,0.000 L671.000,55.000 L661.000,55.000 L661.000,0.000 Z"/>
<path fill-rule="evenodd"  fill="rgb(31, 134, 197)"
 d="M681.000,0.000 L691.000,0.000 L691.000,55.000 L681.000,55.000 L681.000,0.000 Z"/>
<path fill-rule="evenodd"  fill="rgb(255, 0, 0)"
 d="M701.000,0.000 L711.000,0.000 L711.000,55.000 L701.000,55.000 L701.000,0.000 Z"/>
<path fill-rule="evenodd"  fill="rgb(31, 134, 197)"
 d="M721.000,0.000 L731.000,0.000 L731.000,55.000 L721.000,55.000 L721.000,0.000 Z"/>
<path fill-rule="evenodd"  fill="rgb(255, 0, 0)"
 d="M741.000,0.000 L751.000,0.000 L751.000,55.000 L741.000,55.000 L741.000,0.000 Z"/>
<path fill-rule="evenodd"  fill="rgb(31, 134, 197)"
 d="M761.000,0.000 L771.000,0.000 L771.000,55.000 L761.000,55.000 L761.000,0.000 Z"/>
<path fill-rule="evenodd"  fill="rgb(255, 0, 0)"
 d="M781.000,0.000 L791.000,0.000 L791.000,55.000 L781.000,55.000 L781.000,0.000 Z"/>
<path fill-rule="evenodd"  fill="rgb(31, 134, 197)"
 d="M801.000,0.000 L811.000,0.000 L811.000,55.000 L801.000,55.000 L801.000,0.000 Z"/>
<path fill-rule="evenodd"  fill="rgb(255, 0, 0)"
 d="M821.000,0.000 L831.000,0.000 L831.000,55.000 L821.000,55.000 L821.000,0.000 Z"/>
<path fill-rule="evenodd"  fill="rgb(31, 134, 197)"
 d="M841.000,0.000 L851.000,0.000 L851.000,55.000 L841.000,55.000 L841.000,0.000 Z"/>
<path fill-rule="evenodd"  fill="rgb(255, 0, 0)"
 d="M861.000,0.000 L871.000,0.000 L871.000,55.000 L861.000,55.000 L861.000,0.000 Z"/>
<path fill-rule="evenodd"  fill="rgb(31, 134, 197)"
 d="M881.000,0.000 L891.000,0.000 L891.000,55.000 L881.000,55.000 L881.000,0.000 Z"/>
<path fill-rule="evenodd"  fill="rgb(255, 0, 0)"
 d="M901.000,0.000 L911.000,0.000 L911.000,55.000 L901.000,55.000 L901.000,0.000 Z"/>
<path fill-rule="evenodd"  fill="rgb(31, 134, 197)"
 d="M921.000,0.000 L931.000,0.000 L931.000,55.000 L921.000,55.000 L921.000,0.000 Z"/>
<path fill-rule="evenodd"  fill="rgb(255, 0, 0)"
 d="M941.000,0.000 L951.000,0.000 L951.000,55.000 L941.000,55.000 L941.000,0.000 Z"/>
<path fill-rule="evenodd"  fill="rgb(31, 134, 197)"
 d="M961.000,0.000 L971.000,0.000 L971.000,55.000 L961.000,55.000 L961.000,0.000 Z"/>
<path fill-rule="evenodd"  fill="rgb(255, 0, 0)"
 d="M981.000,0.000 L991.000,0.000 L991.000,55.000 L981.000,55.000 L981.000,0.000 Z"/>
<path fill-rule="evenodd"  fill="rgb(31, 134, 197)"
 d="M61.000,30.000 L71.000,30.000 L71.000,85.000 L61.000,85.000 L61.000,30.000 Z"/>
<path fill-rule="evenodd"  fill="rgb(255, 0, 0)"
 d="M81.000,30.000 L91.000,30.000 L91.000,85.000 L81.000,85.000 L81.000,30.000 Z"/>
<path fill-rule="evenodd"  fill="rgb(31, 134, 197)"
 d="M101.000,30.000 L111.000,30.000 L111.000,85.000 L101.000,85.000 L101.000,30.000 Z"/>
<path fill-rule="evenodd"  fill="rgb(255, 0, 0)"
 d="M121.000,30.000 L131.000,30.000 L131.000,85.000 L121.000,85.000 L121.000,30.000 Z"/>
<path fill-rule="evenodd"  fill="rgb(31, 134, 197)"
 d="M141.000,30.000 L151.000,30.000 L151.000,85.000 L141.000,85.000 L141.000,30.000 Z"/>
<path fill-rule="evenodd"  fill="rgb(255, 0, 0)"
 d="M161.000,30.000 L171.000,30.000 L171.000,85.000 L161.000,85.000 L161.000,30.000 Z"/>
<path fill-rule="evenodd"  fill="rgb(31, 134, 197)"
 d="M181.000,30.000 L191.000,30.000 L191.000,85.000 L181.000,85.000 L181.000,30.000 Z"/>
<path fill-rule="evenodd"  fill="rgb(255, 0, 0)"
 d="M201.000,30.000 L211.000,30.000 L211.000,85.000 L201.000,85.000 L201.000,30.000 Z"/>
<path fill-rule="evenodd"  fill="rgb(31, 134, 197)"
 d="M221.000,30.000 L231.000,30.000 L231.000,85.000 L221.000,85.000 L221.000,30.000 Z"/>
<path fill-rule="evenodd"  fill="rgb(255, 0, 0)"
 d="M241.000,30.000 L251.000,30.000 L251.000,85.000 L241.000,85.000 L241.000,30.000 Z"/>
<path fill-rule="evenodd"  fill="rgb(31, 134, 197)"
 d="M261.000,30.000 L271.000,30.000 L271.000,85.000 L261.000,85.000 L261.000,30.000 Z"/>
<path fill-rule="evenodd"  fill="rgb(255, 0, 0)"
 d="M281.000,30.000 L291.000,30.000 L291.000,85.000 L281.000,85.000 L281.000,30.000 Z"/>
<path fill-rule="evenodd"  fill="rgb(31, 134, 197)"
 d="M301.000,30.000 L311.000,30.000 L311.000,85.000 L301.000,85.000 L301.000,30.000 Z"/>
<path fill-rule="evenodd"  fill="rgb(255, 0, 0)"
 d="M321.000,30.000 L331.000,30.000 L331.000,85.000 L321.000,85.000 L321.000,30.000 Z"/>
<path fill-rule="evenodd"  fill="rgb(31, 134, 197)"
 d="M341.000,30.000 L351.000,30.000 L351.000,85.000 L341.000,85.000 L341.000,30.000 Z"/>
<path fill-rule="evenodd"  fill="rgb(255, 0, 0)"
 d="M361.000,30.000 L371.000,30.000 L371.000,85.000 L361.000,85.000 L361.000,30.000 Z"/>
<path fill-rule="evenodd"  fill="rgb(31, 134, 197)"
 d="M381.000,30.000 L391.000,30.000 L391.000,85.000 L381.000,85.000 L381.000,30.000 Z"/>
<path fill-rule="evenodd"  fill="rgb(255, 0, 0)"
 d="M401.000,30.000 L411.000,30.000 L411.000,85.000 L401.000,85.000 L401.000,30.000 Z"/>
<path fill-rule="evenodd"  fill="rgb(31, 134, 197)"
 d="M421.000,30.000 L431.000,30.000 L431.000,85.000 L421.000,85.000 L421.000,30.000 Z"/>
<path fill-rule="evenodd"  fill="rgb(255, 0, 0)"
 d="M441.000,30.000 L451.000,30.000 L451.000,85.000 L441.000,85.000 L441.000,30.000 Z"/>
<path fill-rule="evenodd"  fill="rgb(31, 134, 197)"
 d="M461.000,30.000 L471.000,30.000 L471.000,85.000 L461.000,85.000 L461.000,30.000 Z"/>
<path fill-rule="evenodd"  fill="rgb(255, 0, 0)"
 d="M481.000,30.000 L491.000,30.000 L491.000,85.000 L481.000,85.000 L481.000,30.000 Z"/>
<path fill-rule="evenodd"  fill="rgb(31, 134, 197)"
 d="M501.000,30.000 L511.000,30.000 L511.000,85.000 L501.000,85.000 L501.000,30.000 Z"/>
<path fill-rule="evenodd"  fill="rgb(255, 0, 0)"
 d="M521.000,30.000 L531.000,30.000 L531.000,85.000 L521.000,85.000 L521.000,30.000 Z"/>
<path fill-rule="evenodd"  fill="rgb(31, 134, 197)"
 d="M541.000,30.000 L551.000,30.000 L551.000,85.000 L541.000,85.000 L541.000,30.000 Z"/>
<path fill-rule="evenodd"  fill="rgb(255, 0, 0)"
 d="M561.000,30.000 L571.000,30.000 L571.000,85.000 L561.000,85.000 L561.000,30.000 Z"/>
<path fill-rule="evenodd"  fill="rgb(31, 134, 197)"
 d="M581.000,30.000 L591.000,30.000 L591.000,85.000 L581.000,85.000 L581.000,30.000 Z"/>
<path fill-rule="evenodd"  fill="rgb(255, 0, 0)"
 d="M601.000,30.000 L611.000,30.000 L611.000,85.000 L601.000,85.000 L601.000,30.000 Z"/>
<path fill-rule="evenodd"  fill="rgb(31, 134, 197)"
 d="M621.000,30.000 L631.000,30.000 L631.000,85.000 L621.000,85.000 L621.000,30.000 Z"/>
<path fill-rule="evenodd"  fill="rgb(255, 0, 0)"
 d="M641.000,30.000 L651.000,30.000 L651.000,85.000 L641.000,85.000 L641.000,30.000 Z"/>
<path fill-rule="evenodd"  fill="rgb(31, 134, 197)"
 d="M661.000,30.000 L671.000,30.000 L671.000,85.000 L661.000,85.000 L661.000,30.000 Z"/>
<path fill-rule="evenodd"  fill="rgb(255, 0, 0)"
 d="M681.000,30.000 L691.000,30.000 L691.000,85.000 L681.000,85.000 L681.000,30.000 Z"/>
<path fill-rule="evenodd"  fill="rgb(31, 134, 197)"
 d="M701.000,30.000 L711.000,30.000 L711.000,85.000 L701.000,85.000 L701.000,30.000 Z"/>
<path fill-rule="evenodd"  fill="rgb(255, 0, 0)"
 d="M721.000,30.000 L731.000,30.000 L731.000,85.000 L721.000,85.000 L721.000,30.000 Z"/>
<path fill-rule="evenodd"  fill="rgb(31, 134, 197)"
 d="M741.000,30.000 L751.000,30.000 L751.000,85.000 L741.000,85.000 L741.000,30.000 Z"/>
<path fill-rule="evenodd"  fill="rgb(255, 0, 0)"
 d="M761.000,30.000 L771.000,30.000 L771.000,85.000 L761.000,85.000 L761.000,30.000 Z"/>
<path fill-rule="evenodd"  fill="rgb(31, 134, 197)"
 d="M781.000,30.000 L791.000,30.000 L791.000,85.000 L781.000,85.000 L781.000,30.000 Z"/>
<path fill-rule="evenodd"  fill="rgb(255, 0, 0)"
 d="M801.000,30.000 L811.000,30.000 L811.000,85.000 L801.000,85.000 L801.000,30.000 Z"/>
<path fill-rule="evenodd"  fill="rgb(31, 134, 197)"
 d="M821.000,30.000 L831.000,30.000 L831.000,85.000 L821.000,85.000 L821.000,30.000 Z"/>
<path fill-rule="evenodd"  fill="rgb(255, 0, 0)"
 d="M841.000,30.000 L851.000,30.000 L851.000,85.000 L841.000,85.000 L841.000,30.000 Z"/>
<path fill-rule="evenodd"  fill="rgb(31, 134, 197)"
 d="M861.000,30.000 L871.000,30.000 L871.000,85.000 L861.000,85.000 L861.000,30.000 Z"/>
<path fill-rule="evenodd"  fill="rgb(255, 0, 0)"
 d="M881.000,30.000 L891.000,30.000 L891.000,85.000 L881.000,85.000 L881.000,30.000 Z"/>
<path fill-rule="evenodd"  fill="rgb(31, 134, 197)"
 d="M901.000,30.000 L911.000,30.000 L911.000,85.000 L901.000,85.000 L901.000,30.000 Z"/>
<path fill-rule="evenodd"  fill="rgb(255, 0, 0)"
 d="M921.000,30.000 L931.000,30.000 L931.000,85.000 L921.000,85.000 L921.000,30.000 Z"/>
<path fill-rule="evenodd"  fill="rgb(31, 134, 197)"
 d="M941.000,30.000 L951.000,30.000 L951.000,85.000 L941.000,85.000 L941.000,30.000 Z"/>
<path fill-rule="evenodd"  fill="rgb(255, 0, 0)"
 d="M961.000,30.000 L971.000,30.000 L971.000,85.000 L961.000,85.000 L961.000,30.000 Z"/>
<path fill-rule="evenodd"  fill="rgb(31, 134, 197)"
 d="M981.000,30.000 L991.000,30.000 L991.000,85.000 L981.000,85.000 L981.000,30.000 Z"/>
<path fill-rule="evenodd"  fill="rgb(31, 134, 197)"
 d="M0.000,5.000 L996.000,5.000 L996.000,15.000 L0.000,15.000 L0.000,5.000 Z"/>
<path fill-rule="evenodd"  fill="rgb(255, 0, 0)"
 d="M0.000,25.000 L996.000,25.000 L996.000,35.000 L0.000,35.000 L0.000,25.000 Z"/>
<path fill-rule="evenodd"  fill="rgb(31, 134, 197)"
 d="M0.000,45.000 L996.000,45.000 L996.000,55.000 L0.000,55.000 L0.000,45.000 Z"/>
<path fill-rule="evenodd"  fill="rgb(255, 0, 0)"
 d="M0.000,65.000 L996.000,65.000 L996.000,75.000 L0.000,75.000 L0.000,65.000 Z"/>
</svg>