<svg 
 xmlns="http://www.w3.org/2000/svg"
 xmlns:xlink="http://www.w3.org/1999/xlink"
 width="25px" height="25px">
<path fill-rule="evenodd"  fill="rgb(33, 38, 41)"
 d="M12.500,24.998 C5.596,24.998 -0.000,19.401 -0.000,12.497 C-0.000,5.594 5.596,-0.003 12.500,-0.003 C19.404,-0.003 25.000,5.594 25.000,12.497 C25.000,19.401 19.404,24.998 12.500,24.998 ZM12.500,0.998 C6.149,0.998 1.000,6.146 1.000,12.497 C1.000,18.849 6.149,23.997 12.500,23.997 C18.851,23.997 24.000,18.849 24.000,12.497 C24.000,6.146 18.851,0.998 12.500,0.998 ZM6.011,19.000 L10.337,10.333 L18.988,5.999 L14.663,14.668 L6.011,19.000 ZM13.391,14.142 L10.861,11.611 L8.335,16.673 L13.391,14.142 ZM11.590,10.868 L14.130,13.407 L16.665,8.326 L11.590,10.868 Z"/>
</svg>