<svg 
 xmlns="http://www.w3.org/2000/svg"
 xmlns:xlink="http://www.w3.org/1999/xlink"
 width="26px" height="20px">
<path fill-rule="evenodd"  fill="rgb(33, 38, 41)"
 d="M25.214,16.008 L20.951,16.008 C20.973,16.169 21.000,16.329 21.000,16.496 C21.000,18.430 19.433,19.999 17.500,19.999 C15.567,19.999 14.000,18.430 14.000,16.496 C14.000,16.329 14.026,16.169 14.049,16.008 L8.951,16.008 C8.973,16.169 9.000,16.329 9.000,16.496 C9.000,18.430 7.433,19.999 5.500,19.999 C3.567,19.999 2.000,18.430 2.000,16.496 C2.000,16.329 2.027,16.169 2.049,16.008 L1.545,16.008 C0.692,16.008 -0.000,15.311 -0.000,14.451 L-0.000,1.556 C-0.000,0.696 0.692,-0.001 1.545,-0.001 L16.455,-0.001 C17.308,-0.001 18.000,0.696 18.000,1.556 L18.000,5.000 L25.214,5.000 C25.648,5.000 26.000,5.351 26.000,5.786 L26.000,10.005 L26.000,10.990 L26.000,15.221 C26.000,15.656 25.648,16.008 25.214,16.008 ZM5.500,18.991 C6.881,18.991 8.000,17.873 8.000,16.495 C8.000,15.116 6.881,13.999 5.500,13.999 C4.119,13.999 3.000,15.116 3.000,16.495 C3.000,17.873 4.119,18.991 5.500,18.991 ZM17.000,2.000 C17.000,1.447 16.552,1.000 16.000,1.000 L2.000,1.000 C1.448,1.000 1.000,1.447 1.000,2.000 L1.000,14.000 C1.000,14.552 1.448,15.000 2.000,15.000 L2.347,15.000 C2.908,13.816 4.104,12.992 5.500,12.992 C6.896,12.992 8.092,13.816 8.653,15.000 L14.347,15.000 C14.839,13.961 15.822,13.213 17.000,13.042 L17.000,2.000 ZM17.500,13.999 C16.119,13.999 15.000,15.116 15.000,16.495 C15.000,17.873 16.119,18.991 17.500,18.991 C18.881,18.991 20.000,17.873 20.000,16.495 C20.000,15.116 18.881,13.999 17.500,13.999 ZM25.000,6.008 L18.000,6.008 L18.000,10.005 L25.000,10.005 L25.000,6.008 ZM25.000,10.990 L18.000,10.990 L18.000,13.042 C19.171,13.212 20.148,13.953 20.644,14.983 L25.000,14.983 L25.000,10.990 Z"/>
</svg>