<svg 
 xmlns="http://www.w3.org/2000/svg"
 xmlns:xlink="http://www.w3.org/1999/xlink"
 width="26px" height="25px">
<path fill-rule="evenodd"  fill="rgb(33, 38, 41)"
 d="M24.897,19.760 C24.883,19.779 24.888,19.806 24.871,19.824 C24.861,19.834 24.845,19.830 24.835,19.839 C24.728,19.935 24.580,19.996 24.413,19.996 L19.991,19.996 L19.991,24.403 C20.018,24.557 19.997,24.714 19.878,24.833 C19.848,24.863 19.804,24.857 19.769,24.878 C19.689,24.943 19.596,24.989 19.490,24.989 C19.338,24.989 19.206,24.905 19.114,24.780 L12.500,19.123 L5.886,24.780 C5.795,24.905 5.663,24.989 5.510,24.989 C5.404,24.989 5.311,24.943 5.231,24.878 C5.196,24.857 5.152,24.863 5.122,24.833 C5.003,24.714 4.982,24.557 5.009,24.403 L5.009,19.996 L0.586,19.996 C0.420,19.996 0.272,19.935 0.165,19.839 C0.155,19.830 0.139,19.834 0.129,19.824 C0.112,19.806 0.117,19.779 0.103,19.760 C0.055,19.696 0.024,19.626 0.015,19.547 C0.003,19.475 0.018,19.416 0.038,19.346 C0.047,19.324 0.053,19.302 0.065,19.282 C0.089,19.229 0.086,19.169 0.129,19.126 L4.129,13.992 C3.409,12.654 2.998,11.124 2.998,9.497 C2.998,4.254 7.249,0.003 12.494,0.003 C17.738,0.003 21.989,4.254 21.989,9.497 C21.989,11.120 21.581,12.647 20.863,13.983 L24.871,19.126 C24.914,19.169 24.911,19.229 24.935,19.282 C24.947,19.302 24.953,19.324 24.962,19.346 C24.982,19.416 24.997,19.475 24.985,19.547 C24.976,19.626 24.945,19.696 24.897,19.760 ZM1.473,18.997 L5.425,18.997 C5.445,18.997 5.461,19.005 5.479,19.007 C5.490,19.006 5.499,19.000 5.510,19.000 C5.623,19.000 5.722,19.051 5.806,19.125 C5.822,19.137 5.838,19.148 5.852,19.161 C5.861,19.171 5.868,19.181 5.876,19.191 C5.955,19.276 6.009,19.379 6.009,19.497 C6.009,19.509 6.002,19.519 6.001,19.531 C6.003,19.549 6.010,19.564 6.010,19.582 L6.010,23.372 L11.232,18.906 C8.517,18.544 6.165,17.037 4.678,14.884 L1.473,18.997 ZM21.012,9.496 C21.012,4.816 17.196,1.005 12.507,1.005 C7.817,1.005 4.001,4.816 4.001,9.496 C4.001,14.179 7.817,17.989 12.507,17.989 C17.196,17.989 21.012,14.179 21.012,9.496 ZM20.313,14.873 C18.827,17.027 16.475,18.535 13.759,18.898 L18.990,23.372 L18.990,19.582 C18.990,19.564 18.997,19.549 18.999,19.531 C18.998,19.519 18.991,19.509 18.991,19.497 C18.991,19.379 19.045,19.276 19.125,19.191 C19.132,19.181 19.139,19.171 19.148,19.161 C19.162,19.148 19.178,19.137 19.194,19.125 C19.278,19.051 19.377,19.000 19.490,19.000 C19.501,19.000 19.510,19.006 19.521,19.007 C19.539,19.005 19.556,18.997 19.575,18.997 L23.527,18.997 L20.313,14.873 ZM12.500,15.999 C8.910,15.999 6.000,13.090 6.000,9.499 C6.000,5.910 8.910,2.999 12.500,2.999 C16.090,2.999 19.000,5.910 19.000,9.499 C19.000,13.090 16.090,15.999 12.500,15.999 ZM12.500,4.000 C9.462,4.000 7.000,6.462 7.000,9.499 C7.000,12.537 9.462,14.999 12.500,14.999 C15.538,14.999 18.000,12.537 18.000,9.499 C18.000,6.462 15.538,4.000 12.500,4.000 Z"/>
</svg>