<svg 
 xmlns="http://www.w3.org/2000/svg"
 xmlns:xlink="http://www.w3.org/1999/xlink"
 width="25px" height="25px">
<path fill-rule="evenodd"  fill="rgb(33, 38, 41)"
 d="M24.500,1.000 L17.328,1.000 C21.827,2.891 25.000,7.312 25.000,12.498 C25.000,19.402 19.404,24.998 12.500,24.998 C5.596,24.998 -0.000,19.402 -0.000,12.498 C-0.000,6.103 4.805,0.839 11.000,0.097 L11.000,1.107 C5.359,1.844 1.000,6.657 1.000,12.498 C1.000,18.850 6.149,23.999 12.500,23.999 C18.851,23.999 24.000,18.850 24.000,12.498 C24.000,7.751 21.106,3.709 17.000,1.954 L17.000,8.500 C17.000,8.776 16.776,9.000 16.500,9.000 C16.224,9.000 16.000,8.776 16.000,8.500 L16.000,1.545 C16.000,1.544 16.000,1.544 16.000,1.544 L16.000,0.504 C16.000,0.504 16.000,0.504 16.000,0.504 L16.000,0.500 C16.000,0.224 16.224,-0.000 16.500,-0.000 L24.500,-0.000 C24.776,-0.000 25.000,0.224 25.000,0.500 C25.000,0.776 24.776,1.000 24.500,1.000 ZM12.500,-0.002 C12.502,-0.002 12.504,-0.002 12.506,-0.002 L12.494,-0.002 C12.496,-0.002 12.498,-0.002 12.500,-0.002 Z"/>
</svg>