<?xml version="1.0" encoding="utf-8"?>
<!-- Generator: Adobe Illustrator 14.0.0, SVG Export Plug-In . SVG Version: 6.00 Build 43363)  -->
<!DOCTYPE svg PUBLIC "-//W3C//DTD SVG 1.1//EN" "http://www.w3.org/Graphics/SVG/1.1/DTD/svg11.dtd">
<svg version="1.1" id="Layer_1" xmlns="http://www.w3.org/2000/svg" xmlns:xlink="http://www.w3.org/1999/xlink" x="0px" y="0px"
	 width="612px" height="792px" viewBox="0 0 612 792" enable-background="new 0 0 612 792" xml:space="preserve">
<g>
	<polygon fill-rule="evenodd" clip-rule="evenodd" fill="#FFFFFF" points="209,300 401.756,300 401.756,492.756 209,492.756 
		209,300 	"/>
	<path fill-rule="evenodd" clip-rule="evenodd" fill="#00A651" d="M387.193,422.74c0,3.014-2.442,5.455-5.454,5.455H229.017
		c-3.013,0-5.454-2.441-5.454-5.455v-52.725c0-3.012,2.441-5.455,5.454-5.455h152.722c3.012,0,5.454,2.442,5.454,5.455V422.74
		L387.193,422.74z"/>
	<path fill-rule="evenodd" clip-rule="evenodd" fill="#FFFFFF" d="M238.653,376.611v44.398h-4.796v-49.196h13.22
		c2.895,0,5.223,0.221,6.985,0.657c1.763,0.438,3.361,1.164,4.798,2.175c1.953,1.372,3.496,3.203,4.63,5.496
		c1.131,2.293,1.7,4.72,1.7,7.281c0,3.799-1.128,7.07-3.382,9.811c-2.256,2.744-5.078,4.236-8.465,4.484l11.848,19.291h-5.716
		l-14.555-23.781h4.65c3.081,0,5.586-0.911,7.518-2.734c1.931-1.821,2.897-4.16,2.897-7.018c0-1.732-0.296-3.306-0.89-4.724
		c-0.593-1.416-1.471-2.653-2.631-3.713c-0.963-0.876-2.122-1.5-3.474-1.872c-1.352-0.37-3.762-0.556-7.227-0.556H238.653
		L238.653,376.611z"/>
	<path fill-rule="evenodd" clip-rule="evenodd" fill="#FFFFFF" d="M351.538,376.611v44.398h-4.797v-49.196h13.221
		c2.894,0,5.223,0.221,6.984,0.657c1.763,0.438,3.362,1.164,4.799,2.175c1.952,1.372,3.495,3.203,4.63,5.496
		c1.132,2.293,1.7,4.72,1.7,7.281c0,3.799-1.128,7.07-3.383,9.811c-2.256,2.744-5.078,4.236-8.465,4.484l11.848,19.291h-5.716
		l-14.556-23.781h4.65c3.081,0,5.587-0.911,7.518-2.734c1.932-1.821,2.897-4.16,2.897-7.018c0-1.732-0.297-3.306-0.89-4.724
		c-0.593-1.416-1.471-2.653-2.631-3.713c-0.964-0.876-2.122-1.5-3.474-1.872c-1.353-0.37-3.763-0.556-7.228-0.556H351.538
		L351.538,376.611z"/>
	<path fill-rule="evenodd" clip-rule="evenodd" fill="#FFFFFF" d="M274.064,380.701c0.729-1.552,1.732-2.867,3.008-3.944
		c0.968-0.819,2.026-1.439,3.174-1.862c1.146-0.421,2.339-0.633,3.579-0.633c3.042,0,5.643,1.097,7.802,3.292
		c2.158,2.196,3.239,4.809,3.239,7.842c0,3.253-1.049,5.992-3.147,8.218c-2.098,2.226-4.667,3.339-7.71,3.339
		c-3.116,0-5.734-1.1-7.856-3.302c-2.124-2.201-3.184-4.928-3.184-8.182C272.969,383.843,273.333,382.253,274.064,380.701
		L274.064,380.701L274.064,380.701z M274.11,395.428c2.618,2.697,5.857,4.046,9.718,4.046c2.016,0,3.885-0.379,5.606-1.137
		c1.721-0.76,3.263-1.885,4.628-3.378c1.18-1.295,2.065-2.736,2.656-4.32s0.885-3.325,0.885-5.222c0-1.907-0.344-3.688-1.033-5.339
		c-0.688-1.651-1.715-3.144-3.079-4.478c-1.328-1.296-2.793-2.271-4.398-2.927c-1.605-0.654-3.348-0.982-5.228-0.982
		c-1.844,0-3.556,0.324-5.136,0.973c-1.58,0.649-3.027,1.615-4.343,2.899c-1.365,1.334-2.406,2.845-3.125,4.533
		c-0.72,1.689-1.079,3.462-1.079,5.321C270.183,389.395,271.491,392.731,274.11,395.428L274.11,395.428z"/>
	<polygon fill-rule="evenodd" clip-rule="evenodd" fill="#FFFFFF" points="297.384,372.235 300.019,372.235 308.554,394.989 
		317.094,372.235 319.729,372.235 309.626,398.93 307.536,398.93 297.384,372.235 	"/>
	<polygon fill-rule="evenodd" clip-rule="evenodd" fill="#FFFFFF" points="325.813,384.199 340.933,384.199 340.933,386.818 
		325.813,386.818 325.813,396.36 340.933,396.36 340.933,398.93 322.283,398.93 322.283,372.235 340.933,372.235 340.933,374.855 
		325.813,374.855 325.813,384.199 	"/>
	<path fill-rule="evenodd" clip-rule="evenodd" fill="#FFFFFF" d="M274.645,412.207c1.564,0,2.731,0.289,3.504,0.867
		c0.773,0.58,1.16,1.457,1.16,2.631c0,1.176-0.381,2.047-1.14,2.613c-0.76,0.566-1.933,0.85-3.524,0.85h-2.708v-6.961H274.645
		L274.645,412.207L274.645,412.207z M273.594,404.232c1.618,0,2.793,0.244,3.53,0.729c0.737,0.488,1.105,1.26,1.105,2.316
		c0,1.125-0.379,1.936-1.14,2.43c-0.758,0.494-2.09,0.742-3.993,0.742h-1.159v-6.217H273.594L273.594,404.232L273.594,404.232z
		 M270.103,420.924h4.326c2.367,0,4.102-0.439,5.203-1.316c1.104-0.879,1.654-2.254,1.654-4.129c0-1.082-0.267-1.996-0.798-2.744
		c-0.532-0.746-1.33-1.326-2.393-1.74c0.704-0.381,1.231-0.871,1.585-1.471c0.352-0.602,0.528-1.324,0.528-2.168
		c0-1.672-0.522-2.904-1.567-3.695c-1.043-0.791-2.677-1.186-4.898-1.186h-3.64V420.924L270.103,420.924z"/>
	<path fill-rule="evenodd" clip-rule="evenodd" fill="#FFFFFF" d="M285.963,408.309c0.537-1.072,1.272-1.98,2.208-2.725
		c0.712-0.566,1.488-0.994,2.331-1.285c0.841-0.293,1.717-0.438,2.626-0.438c2.233,0,4.142,0.756,5.727,2.273
		c1.583,1.518,2.378,3.324,2.378,5.42c0,2.248-0.771,4.141-2.311,5.678c-1.54,1.539-3.426,2.307-5.659,2.307
		c-2.288,0-4.209-0.76-5.767-2.281c-1.559-1.52-2.337-3.404-2.337-5.652C285.161,410.48,285.428,409.383,285.963,408.309
		L285.963,408.309L285.963,408.309z M286.021,418.502c1.915,1.863,4.285,2.795,7.111,2.795c1.474,0,2.842-0.262,4.102-0.787
		c1.259-0.523,2.389-1.301,3.386-2.332c0.863-0.896,1.512-1.891,1.944-2.984c0.431-1.094,0.647-2.297,0.647-3.607
		c0-1.318-0.251-2.547-0.755-3.689c-0.505-1.141-1.257-2.17-2.254-3.092c-0.972-0.895-2.046-1.57-3.218-2.023
		c-1.174-0.451-2.449-0.678-3.825-0.678c-1.35,0-2.603,0.223-3.758,0.672c-1.157,0.449-2.215,1.117-3.178,2.004
		c-1,0.92-1.762,1.965-2.288,3.131c-0.525,1.168-0.789,2.391-0.789,3.676C283.146,414.334,284.104,416.637,286.021,418.502
		L286.021,418.502z"/>
	<path fill-rule="evenodd" clip-rule="evenodd" fill="#FFFFFF" d="M307.701,408.309c0.536-1.072,1.271-1.98,2.207-2.725
		c0.713-0.566,1.489-0.994,2.332-1.285c0.841-0.293,1.717-0.438,2.626-0.438c2.234,0,4.143,0.756,5.727,2.273
		c1.585,1.518,2.379,3.324,2.379,5.42c0,2.248-0.772,4.141-2.311,5.678c-1.54,1.539-3.427,2.307-5.66,2.307
		c-2.287,0-4.208-0.76-5.767-2.281c-1.558-1.52-2.337-3.404-2.337-5.652C306.897,410.48,307.165,409.383,307.701,408.309
		L307.701,408.309L307.701,408.309z M307.758,418.502c1.915,1.863,4.286,2.795,7.111,2.795c1.475,0,2.842-0.262,4.101-0.787
		c1.26-0.523,2.39-1.301,3.388-2.332c0.863-0.896,1.512-1.891,1.944-2.984c0.431-1.094,0.647-2.297,0.647-3.607
		c0-1.318-0.252-2.547-0.756-3.689c-0.505-1.141-1.256-2.17-2.254-3.092c-0.972-0.895-2.045-1.57-3.219-2.023
		c-1.174-0.451-2.449-0.678-3.824-0.678c-1.352,0-2.604,0.223-3.759,0.672c-1.157,0.449-2.216,1.117-3.177,2.004
		c-1.001,0.92-1.762,1.965-2.289,3.131c-0.526,1.168-0.789,2.391-0.789,3.676C304.883,414.334,305.841,416.637,307.758,418.502
		L307.758,418.502z"/>
	<polygon fill-rule="evenodd" clip-rule="evenodd" fill="#FFFFFF" points="329.497,415.234 329.497,420.924 327.592,420.924 
		327.592,402.475 329.497,402.475 329.497,412.727 338.571,402.475 340.86,402.475 332.94,411.396 340.716,420.924 338.35,420.924 
		331.704,412.752 329.497,415.234 	"/>
	<path fill-rule="evenodd" clip-rule="evenodd" fill="#FFFFFF" d="M381.099,370.226c0.213,0.136,0.319,0.359,0.319,0.669
		c0,0.298-0.101,0.51-0.303,0.635c-0.201,0.125-0.552,0.188-1.051,0.188h-0.883v-1.696h0.883
		C380.541,370.021,380.887,370.09,381.099,370.226L381.099,370.226L381.099,370.226z M378.46,369.54v4.759h0.722v-2.102h1.101
		l0.995,2.102h0.813l-1.054-2.204c0.34-0.049,0.611-0.186,0.813-0.41c0.202-0.224,0.304-0.503,0.304-0.836
		c0-0.445-0.16-0.774-0.479-0.988c-0.319-0.213-0.812-0.32-1.475-0.32H378.46L378.46,369.54L378.46,369.54z M383.477,373.411
		c-0.178,0.433-0.438,0.816-0.779,1.149c-0.36,0.352-0.767,0.621-1.219,0.809c-0.452,0.187-0.922,0.281-1.41,0.281
		c-0.484,0-0.947-0.093-1.391-0.278c-0.442-0.186-0.84-0.452-1.193-0.801c-0.349-0.352-0.615-0.749-0.802-1.19
		s-0.279-0.905-0.279-1.388c0-0.484,0.095-0.949,0.285-1.396c0.189-0.448,0.462-0.853,0.818-1.215
		c0.346-0.345,0.736-0.607,1.174-0.787c0.437-0.18,0.899-0.27,1.388-0.27c0.503,0,0.979,0.092,1.427,0.278s0.85,0.452,1.202,0.801
		c0.338,0.34,0.597,0.733,0.777,1.179c0.18,0.446,0.27,0.919,0.27,1.422C383.744,372.51,383.655,372.979,383.477,373.411
		L383.477,373.411L383.477,373.411z M378.492,368.164c-0.491,0.203-0.927,0.498-1.306,0.884c-0.398,0.402-0.702,0.857-0.915,1.366
		c-0.213,0.509-0.318,1.033-0.318,1.574c0,0.548,0.104,1.073,0.311,1.572c0.206,0.499,0.506,0.944,0.9,1.334
		c0.391,0.399,0.834,0.702,1.331,0.91c0.497,0.208,1.021,0.312,1.573,0.312c0.544,0,1.069-0.105,1.576-0.317
		c0.507-0.212,0.961-0.517,1.362-0.916c0.39-0.383,0.686-0.821,0.887-1.312c0.2-0.491,0.301-1.019,0.301-1.583
		c0-0.559-0.103-1.089-0.307-1.591s-0.498-0.943-0.881-1.326c-0.387-0.394-0.831-0.695-1.331-0.902
		c-0.501-0.207-1.037-0.31-1.607-0.31C379.509,367.859,378.983,367.96,378.492,368.164L378.492,368.164z"/>
</g>
</svg>
