<svg 
 xmlns="http://www.w3.org/2000/svg"
 xmlns:xlink="http://www.w3.org/1999/xlink"
 width="16px" height="16px">
<path fill-rule="evenodd"  fill="rgb(33, 38, 41)"
 d="M15.857,15.857 C15.671,16.042 15.370,16.042 15.184,15.857 L10.727,11.400 C9.588,12.383 8.123,12.999 6.500,12.999 C2.910,12.999 0.000,10.089 0.000,6.499 C0.000,2.909 2.910,-0.000 6.500,-0.000 C10.090,-0.000 13.000,2.909 13.000,6.499 C13.000,8.122 12.384,9.587 11.401,10.726 L15.857,15.183 C16.043,15.369 16.043,15.671 15.857,15.857 ZM12.000,6.499 C12.000,3.462 9.538,0.999 6.500,0.999 C3.462,0.999 1.000,3.462 1.000,6.499 C1.000,9.537 3.462,11.999 6.500,11.999 C9.538,11.999 12.000,9.537 12.000,6.499 Z"/>
</svg>