<?xml version="1.0" encoding="iso-8859-1"?>
<!-- Generator: Adobe Illustrator 19.0.0, SVG Export Plug-In . SVG Version: 6.00 Build 0)  -->
<svg version="1.1" id="Capa_1" xmlns="http://www.w3.org/2000/svg" xmlns:xlink="http://www.w3.org/1999/xlink" x="0px" y="0px"
	 viewBox="0 0 512 512" style="enable-background:new 0 0 512 512;" xml:space="preserve">
<g>
	<g>
		<path d="M353.583,188.257V45.248c0-2.599-1.345-5.012-3.555-6.379c-2.21-1.366-4.97-1.492-7.295-0.331l-176.92,88.313H32.341
			C14.508,126.85,0,141.357,0,159.19v129.722c0,17.833,14.508,32.341,32.341,32.341l18.113-0.001
			c1.79,8.863,6.689,16.606,13.503,22.054V450.67c0,13.004,10.58,23.582,23.582,23.582s23.582-10.579,23.582-23.582v-34.473
			c0-4.142-3.358-7.5-7.5-7.5c-4.142,0-7.5,3.358-7.5,7.5v34.473c0,4.732-3.85,8.582-8.582,8.582c-4.731,0-8.582-3.85-8.582-8.582
			V350.604c0.26,0.06,7.875,2.13,17.163,0.001v30.591c0,4.143,3.358,7.5,7.5,7.5c4.142,0,7.5-3.357,7.5-7.5v-37.887
			c6.813-5.448,11.714-13.192,13.504-22.055h41.185c189.162,94.423,177.656,89.103,180.271,89.103c4.131,0,7.5-3.349,7.5-7.5V262.43
			c17.282-3.49,30.335-18.792,30.335-37.087C383.919,207.048,370.865,191.747,353.583,188.257z M99.502,333.195
			c-15.204,9.359-34.796-1.653-34.796-19.443c0-15.849,15.83-26.894,30.679-21.446C113.25,298.86,115.746,323.163,99.502,333.195z
			 M160.08,179.712h-55.038c-4.142,0-7.5,3.357-7.5,7.5s3.358,7.5,7.5,7.5h55.038v111.538l-35.45-0.001
			c-8.705-40.557-66.254-39.824-74.179,0.001h-18.11v0.001c-9.562,0-17.34-7.779-17.34-17.34v-94.198h55.038
			c4.142,0,7.5-3.357,7.5-7.5c0-4.143-3.358-7.5-7.5-7.5H15.001V159.19c0-9.562,7.779-17.34,17.34-17.34H160.08V179.712z
			 M338.582,390.728l-163.501-81.615V138.989l163.501-81.614C338.582,67.232,338.582,380.836,338.582,390.728z M353.583,246.912
			v-43.139C373.968,210.882,373.972,239.803,353.583,246.912z"/>
	</g>
</g>
<g>
	<g>
		<path d="M398.564,169.616c-2.929-2.929-7.679-2.93-10.608-0.001c-2.929,2.929-2.929,7.678,0,10.607
			c23.711,23.714,25.225,61.775,3.444,86.65c-2.729,3.116-2.415,7.855,0.702,10.584c3.117,2.73,7.857,2.413,10.584-0.702
			C429.652,245.957,427.842,198.895,398.564,169.616z"/>
	</g>
</g>
<g>
	<g>
		<path d="M430.454,137.723c-2.929-2.928-7.678-2.928-10.608,0c-2.929,2.93-2.929,7.679,0,10.608
			c42.689,42.689,43.122,111.715,0.965,153.871c-4.74,4.741-1.318,12.805,5.303,12.805c1.919,0,3.839-0.732,5.303-2.196
			c23.266-23.267,35.973-54.301,35.779-87.388C467.004,192.369,453.955,161.224,430.454,137.723z"/>
	</g>
</g>
<g>
	<g>
		<path d="M461.948,106.228c-2.928-2.927-7.677-2.927-10.607,0c-2.929,2.93-2.929,7.678,0,10.608
			c29.202,29.201,45.416,67.888,45.656,108.934c0.24,41.014-15.501,79.473-44.323,108.294c-2.929,2.93-2.929,7.678,0,10.608
			c2.93,2.929,7.679,2.928,10.607,0c31.679-31.679,48.98-73.937,48.716-118.989C511.734,180.661,493.96,138.24,461.948,106.228z"/>
	</g>
</g>
<g>
</g>
<g>
</g>
<g>
</g>
<g>
</g>
<g>
</g>
<g>
</g>
<g>
</g>
<g>
</g>
<g>
</g>
<g>
</g>
<g>
</g>
<g>
</g>
<g>
</g>
<g>
</g>
<g>
</g>
</svg>
