<svg 
 xmlns="http://www.w3.org/2000/svg"
 xmlns:xlink="http://www.w3.org/1999/xlink">
<path  fill="rgb(33, 38, 41)"
 d="M17.975,22.000 C17.985,21.834 18.000,21.669 18.000,21.500 C18.000,16.805 14.194,13.000 9.500,13.000 C4.806,13.000 1.000,16.805 1.000,21.500 C1.000,21.669 1.016,21.834 1.025,22.000 L0.025,22.000 C0.017,21.833 0.000,21.669 0.000,21.500 C0.000,17.198 2.861,13.569 6.783,12.399 C4.552,11.370 3.000,9.119 3.000,6.500 C3.000,2.910 5.910,0.000 9.500,0.000 C13.090,0.000 16.000,2.910 16.000,6.500 C16.000,9.119 14.448,11.370 12.217,12.399 C16.139,13.569 19.000,17.198 19.000,21.500 C19.000,21.669 18.983,21.833 18.975,22.000 L17.975,22.000 ZM15.000,6.500 C15.000,3.463 12.537,1.000 9.500,1.000 C6.462,1.000 4.000,3.463 4.000,6.500 C4.000,9.537 6.462,12.000 9.500,12.000 C12.537,12.000 15.000,9.537 15.000,6.500 Z"/>
</svg>